<svg xmlns="http://www.w3.org/2000/svg" width="30.498" height="28.125" viewBox="0 0 30.498 28.125"><path d="M25.662,3.938h-.073a8.432,8.432,0,0,0-6.965,3.656,8.432,8.432,0,0,0-6.965-3.656h-.073a8.121,8.121,0,0,0-8.211,7.945,16.674,16.674,0,0,0,3.5,9.33C11.293,27,18.624,32.063,18.624,32.063S25.955,27,30.368,21.213a16.674,16.674,0,0,0,3.5-9.33A8.121,8.121,0,0,0,25.662,3.938Zm3.05,16.116a55.226,55.226,0,0,1-10.088,9.534A55.306,55.306,0,0,1,8.536,20.046a14.779,14.779,0,0,1-3.108-8.163,5.827,5.827,0,0,1,1.8-4.2A6.324,6.324,0,0,1,11.6,5.913h.066a6.349,6.349,0,0,1,5.242,2.763,2.108,2.108,0,0,0,3.446,0A6.349,6.349,0,0,1,25.6,5.913h.066a6.338,6.338,0,0,1,4.369,1.765,5.81,5.81,0,0,1,1.8,4.2A14.967,14.967,0,0,1,28.712,20.053Z" transform="translate(-3.375 -3.938)" fill="#fff"/></svg>