<svg xmlns="http://www.w3.org/2000/svg" width="32.54" height="35.085" viewBox="0 0 32.54 35.085"><g fill="none"><path d="M22.395,27.118A15.33,15.33,0,0,1,15,29,14.756,14.756,0,0,1,0,14.5,14.756,14.756,0,0,1,15,0,14.756,14.756,0,0,1,30,14.5a14.215,14.215,0,0,1-4.371,10.232l6.912,7.678-2.973,2.676Z" stroke="none"/><path d="M 15.00030040740967 26.49980163574219 C 17.17561149597168 26.49980163574219 19.31664085388184 25.95578002929688 21.19194030761719 24.92656135559082 L 22.67869186401367 24.11058235168457 L 23.88714981079102 22.93759155273438 C 26.21674156188965 20.6763801574707 27.49970054626465 17.6798210144043 27.49970054626465 14.49990081787109 C 27.49970054626465 11.31066036224365 26.21022033691406 8.307750701904297 23.8687801361084 6.04434061050415 C 21.5044002532959 3.758740663528442 18.3548412322998 2.500000715255737 15.00030040740967 2.500000715255737 C 11.64535045623779 2.500000715255737 8.495500564575195 3.758750677108765 6.130990505218506 6.044370651245117 C 3.789510726928711 8.307730674743652 2.500000715255737 11.31063079833984 2.500000715255737 14.49990081787109 C 2.500000715255737 17.68917083740234 3.789510726928711 20.69207000732422 6.130990505218506 22.95543098449707 C 8.495500564575195 25.24105072021484 11.64535045623779 26.49980163574219 15.00030040740967 26.49980163574219 M 29.56770133972168 35.08470153808594 L 22.39477157592773 27.1181812286377 C 20.21244049072266 28.31591033935547 17.68903160095215 28.99980163574219 15.00030040740967 28.99980163574219 C 6.715800762176514 28.99980163574219 7.293701287380827e-07 22.50810050964355 7.293701287380827e-07 14.49990081787109 C 7.293701287380827e-07 6.491700649261475 6.715800762176514 7.690429697504442e-07 15.00030040740967 7.690429697504442e-07 C 23.28390121459961 7.690429697504442e-07 29.99970054626465 6.491700649261475 29.99970054626465 14.49990081787109 C 29.99970054626465 18.49324989318848 28.3299503326416 22.10923004150391 25.62839126586914 24.73149108886719 L 32.54040145874023 32.40900039672852 L 29.56770133972168 35.08470153808594 Z" stroke="none" fill="#fff"/></g></svg>